<mxfile host="Electron" modified="2023-05-16T12:12:24.581Z" agent="Mozilla/5.0 (Windows NT 10.0; Win64; x64) AppleWebKit/537.36 (KHTML, like Gecko) draw.io/21.2.8 Chrome/112.0.5615.165 Electron/24.2.0 Safari/537.36" etag="OnnL1l8DmS16mposEeym" version="21.2.8" type="device">
  <diagram name="Page-1" id="Nbv7Fia7iHpYAP2SuXzK">
    <mxGraphModel dx="1886" dy="1706" grid="1" gridSize="10" guides="1" tooltips="1" connect="1" arrows="1" fold="1" page="1" pageScale="1" pageWidth="850" pageHeight="1100" math="0" shadow="0">
      <root>
        <mxCell id="0" />
        <mxCell id="1" parent="0" />
        <mxCell id="A18H2YYV-nFkvodKzMuA-175" style="edgeStyle=orthogonalEdgeStyle;rounded=0;orthogonalLoop=1;jettySize=auto;html=1;exitX=0.25;exitY=1;exitDx=0;exitDy=0;labelBackgroundColor=none;fontColor=default;" parent="1" source="Vbx-cMh8HeWqr-4w0K0C-1" target="A18H2YYV-nFkvodKzMuA-166" edge="1">
          <mxGeometry relative="1" as="geometry">
            <mxPoint x="960" y="700" as="targetPoint" />
          </mxGeometry>
        </mxCell>
        <mxCell id="A18H2YYV-nFkvodKzMuA-176" style="edgeStyle=orthogonalEdgeStyle;rounded=0;orthogonalLoop=1;jettySize=auto;html=1;exitX=0.5;exitY=1;exitDx=0;exitDy=0;entryX=0.5;entryY=0;entryDx=0;entryDy=0;labelBackgroundColor=none;fontColor=default;" parent="1" source="Vbx-cMh8HeWqr-4w0K0C-1" target="A18H2YYV-nFkvodKzMuA-165" edge="1">
          <mxGeometry relative="1" as="geometry">
            <Array as="points">
              <mxPoint x="1210" y="415" />
              <mxPoint x="1210" y="600" />
              <mxPoint x="1155" y="600" />
            </Array>
          </mxGeometry>
        </mxCell>
        <mxCell id="A18H2YYV-nFkvodKzMuA-179" style="edgeStyle=orthogonalEdgeStyle;rounded=0;orthogonalLoop=1;jettySize=auto;html=1;exitX=0.75;exitY=1;exitDx=0;exitDy=0;entryX=0.314;entryY=0.024;entryDx=0;entryDy=0;entryPerimeter=0;labelBackgroundColor=none;fontColor=default;" parent="1" source="Vbx-cMh8HeWqr-4w0K0C-1" target="A18H2YYV-nFkvodKzMuA-164" edge="1">
          <mxGeometry relative="1" as="geometry" />
        </mxCell>
        <mxCell id="A18H2YYV-nFkvodKzMuA-181" style="edgeStyle=orthogonalEdgeStyle;rounded=0;orthogonalLoop=1;jettySize=auto;html=1;exitX=0.5;exitY=1;exitDx=0;exitDy=0;entryX=0.25;entryY=0.117;entryDx=0;entryDy=0;entryPerimeter=0;labelBackgroundColor=none;fontColor=default;" parent="1" source="Vbx-cMh8HeWqr-4w0K0C-1" target="A18H2YYV-nFkvodKzMuA-178" edge="1">
          <mxGeometry relative="1" as="geometry">
            <Array as="points">
              <mxPoint x="1230" y="600" />
              <mxPoint x="1293" y="600" />
            </Array>
          </mxGeometry>
        </mxCell>
        <mxCell id="Vbx-cMh8HeWqr-4w0K0C-1" value="&lt;font style=&quot;font-size: 21px;&quot;&gt;BOOKING&lt;/font&gt;" style="rounded=1;whiteSpace=wrap;html=1;labelBackgroundColor=none;fillColor=#60a917;fontColor=#ffffff;strokeColor=#2D7600;" parent="1" vertex="1">
          <mxGeometry x="1140" y="355" width="180" height="60" as="geometry" />
        </mxCell>
        <mxCell id="Vbx-cMh8HeWqr-4w0K0C-32" style="edgeStyle=orthogonalEdgeStyle;rounded=1;orthogonalLoop=1;jettySize=auto;html=1;exitX=0;exitY=0;exitDx=0;exitDy=0;entryX=0.693;entryY=0.963;entryDx=0;entryDy=0;entryPerimeter=0;labelBackgroundColor=none;fontColor=default;" parent="1" source="Vbx-cMh8HeWqr-4w0K0C-10" target="Vbx-cMh8HeWqr-4w0K0C-21" edge="1">
          <mxGeometry relative="1" as="geometry" />
        </mxCell>
        <mxCell id="Vbx-cMh8HeWqr-4w0K0C-33" style="edgeStyle=orthogonalEdgeStyle;rounded=1;orthogonalLoop=1;jettySize=auto;html=1;exitX=0.25;exitY=0;exitDx=0;exitDy=0;entryX=0.5;entryY=1;entryDx=0;entryDy=0;labelBackgroundColor=none;fontColor=default;" parent="1" source="Vbx-cMh8HeWqr-4w0K0C-10" target="Vbx-cMh8HeWqr-4w0K0C-20" edge="1">
          <mxGeometry relative="1" as="geometry">
            <Array as="points">
              <mxPoint x="1801.29" y="-150" />
              <mxPoint x="1828.29" y="-150" />
            </Array>
          </mxGeometry>
        </mxCell>
        <mxCell id="Vbx-cMh8HeWqr-4w0K0C-36" style="edgeStyle=orthogonalEdgeStyle;rounded=1;orthogonalLoop=1;jettySize=auto;html=1;exitX=0.5;exitY=0;exitDx=0;exitDy=0;entryX=0.31;entryY=0.989;entryDx=0;entryDy=0;entryPerimeter=0;labelBackgroundColor=none;fontColor=default;" parent="1" source="Vbx-cMh8HeWqr-4w0K0C-10" target="Vbx-cMh8HeWqr-4w0K0C-22" edge="1">
          <mxGeometry relative="1" as="geometry" />
        </mxCell>
        <mxCell id="Vbx-cMh8HeWqr-4w0K0C-39" style="edgeStyle=orthogonalEdgeStyle;rounded=1;orthogonalLoop=1;jettySize=auto;html=1;exitX=0.75;exitY=0;exitDx=0;exitDy=0;labelBackgroundColor=none;fontColor=default;" parent="1" source="Vbx-cMh8HeWqr-4w0K0C-10" edge="1">
          <mxGeometry relative="1" as="geometry">
            <mxPoint x="2116.29" y="-240" as="targetPoint" />
            <Array as="points">
              <mxPoint x="1891.29" y="-130" />
              <mxPoint x="2116.29" y="-130" />
            </Array>
          </mxGeometry>
        </mxCell>
        <mxCell id="Vbx-cMh8HeWqr-4w0K0C-40" style="edgeStyle=orthogonalEdgeStyle;rounded=1;orthogonalLoop=1;jettySize=auto;html=1;exitX=1;exitY=0;exitDx=0;exitDy=0;entryX=0.328;entryY=0.932;entryDx=0;entryDy=0;entryPerimeter=0;labelBackgroundColor=none;fontColor=default;" parent="1" source="Vbx-cMh8HeWqr-4w0K0C-10" target="Vbx-cMh8HeWqr-4w0K0C-23" edge="1">
          <mxGeometry relative="1" as="geometry">
            <Array as="points">
              <mxPoint x="1936.29" y="-100" />
              <mxPoint x="2242.29" y="-100" />
            </Array>
          </mxGeometry>
        </mxCell>
        <mxCell id="Vbx-cMh8HeWqr-4w0K0C-10" value="" style="rounded=1;whiteSpace=wrap;html=1;labelBackgroundColor=none;fillColor=#60a917;fontColor=#ffffff;strokeColor=#2D7600;" parent="1" vertex="1">
          <mxGeometry x="1756.29" y="-60" width="180" height="60" as="geometry" />
        </mxCell>
        <mxCell id="Vbx-cMh8HeWqr-4w0K0C-11" value="" style="rhombus;whiteSpace=wrap;html=1;rotation=-35;labelBackgroundColor=none;rounded=1;fillColor=#e51400;fontColor=#ffffff;strokeColor=#B20000;" parent="1" vertex="1">
          <mxGeometry x="1480" y="116.83999999999999" width="121.56" height="112.29" as="geometry" />
        </mxCell>
        <mxCell id="Vbx-cMh8HeWqr-4w0K0C-12" value="" style="endArrow=none;html=1;rounded=1;shape=link;exitX=1;exitY=0.5;exitDx=0;exitDy=0;entryX=0;entryY=1;entryDx=0;entryDy=0;width=8.947368421052634;labelBackgroundColor=none;fontColor=default;" parent="1" source="Vbx-cMh8HeWqr-4w0K0C-11" target="Vbx-cMh8HeWqr-4w0K0C-10" edge="1">
          <mxGeometry width="50" height="50" relative="1" as="geometry">
            <mxPoint x="1590" y="170" as="sourcePoint" />
            <mxPoint x="1620" y="130" as="targetPoint" />
          </mxGeometry>
        </mxCell>
        <mxCell id="Vbx-cMh8HeWqr-4w0K0C-13" value="&lt;font style=&quot;font-size: 19px;&quot;&gt;have&lt;/font&gt;" style="rhombus;whiteSpace=wrap;html=1;rotation=-35;labelBackgroundColor=none;rounded=1;fillColor=#e51400;fontColor=#ffffff;strokeColor=#B20000;" parent="1" vertex="1">
          <mxGeometry x="1489.0600000000002" y="127.17" width="102.12" height="92.27" as="geometry" />
        </mxCell>
        <mxCell id="Vbx-cMh8HeWqr-4w0K0C-15" value="&lt;font style=&quot;font-size: 21px;&quot;&gt;BILL&lt;/font&gt;" style="rounded=1;whiteSpace=wrap;html=1;labelBackgroundColor=none;fillColor=#60a917;fontColor=#ffffff;strokeColor=#2D7600;" parent="1" vertex="1">
          <mxGeometry x="1765.91" y="-50" width="160.76" height="40" as="geometry" />
        </mxCell>
        <mxCell id="Vbx-cMh8HeWqr-4w0K0C-16" value="" style="endArrow=none;html=1;rounded=1;shape=link;exitX=1;exitY=0;exitDx=0;exitDy=0;width=8.947368421052634;entryX=0;entryY=0.5;entryDx=0;entryDy=0;labelBackgroundColor=none;fontColor=default;" parent="1" source="Vbx-cMh8HeWqr-4w0K0C-1" target="Vbx-cMh8HeWqr-4w0K0C-11" edge="1">
          <mxGeometry width="50" height="50" relative="1" as="geometry">
            <mxPoint x="1360.87" y="324" as="sourcePoint" />
            <mxPoint x="1490" y="240" as="targetPoint" />
          </mxGeometry>
        </mxCell>
        <mxCell id="Vbx-cMh8HeWqr-4w0K0C-20" value="&lt;font style=&quot;font-size: 18px;&quot;&gt;DATE&lt;/font&gt;" style="ellipse;whiteSpace=wrap;html=1;rotation=5;labelBackgroundColor=none;rounded=1;fillColor=#dae8fc;gradientColor=#7ea6e0;strokeColor=#6c8ebf;" parent="1" vertex="1">
          <mxGeometry x="1746.29" y="-290" width="170" height="60" as="geometry" />
        </mxCell>
        <mxCell id="Vbx-cMh8HeWqr-4w0K0C-21" value="&lt;font style=&quot;font-size: 18px;&quot;&gt;TIME&lt;/font&gt;" style="ellipse;whiteSpace=wrap;html=1;labelBackgroundColor=none;rounded=1;fillColor=#dae8fc;gradientColor=#7ea6e0;strokeColor=#6c8ebf;" parent="1" vertex="1">
          <mxGeometry x="1638.71" y="-220" width="170" height="60" as="geometry" />
        </mxCell>
        <mxCell id="Vbx-cMh8HeWqr-4w0K0C-22" value="&lt;font style=&quot;font-size: 18px;&quot;&gt;PRICE&lt;/font&gt;" style="ellipse;whiteSpace=wrap;html=1;rotation=15;labelBackgroundColor=none;rounded=1;fillColor=#dae8fc;gradientColor=#7ea6e0;strokeColor=#6c8ebf;" parent="1" vertex="1">
          <mxGeometry x="1886.29" y="-320" width="170" height="60" as="geometry" />
        </mxCell>
        <mxCell id="Vbx-cMh8HeWqr-4w0K0C-23" value="&lt;font style=&quot;font-size: 18px;&quot;&gt;CODE&lt;/font&gt;" style="ellipse;whiteSpace=wrap;html=1;rotation=35;labelBackgroundColor=none;rounded=1;fillColor=#dae8fc;gradientColor=#7ea6e0;strokeColor=#6c8ebf;" parent="1" vertex="1">
          <mxGeometry x="2196.29" y="-200" width="170" height="60" as="geometry" />
        </mxCell>
        <mxCell id="Vbx-cMh8HeWqr-4w0K0C-29" value="&lt;font style=&quot;font-size: 18px;&quot;&gt;&lt;u&gt;ID&lt;/u&gt;&lt;/font&gt;" style="ellipse;whiteSpace=wrap;html=1;rotation=30;labelBackgroundColor=none;rounded=1;fillColor=#dae8fc;gradientColor=#7ea6e0;strokeColor=#6c8ebf;" parent="1" vertex="1">
          <mxGeometry x="2046.29" y="-300" width="170" height="60" as="geometry" />
        </mxCell>
        <mxCell id="Vbx-cMh8HeWqr-4w0K0C-69" style="edgeStyle=orthogonalEdgeStyle;rounded=1;orthogonalLoop=1;jettySize=auto;html=1;exitX=0;exitY=0;exitDx=0;exitDy=0;entryX=0.262;entryY=0.988;entryDx=0;entryDy=0;entryPerimeter=0;labelBackgroundColor=none;fontColor=default;" parent="1" source="Vbx-cMh8HeWqr-4w0K0C-41" target="Vbx-cMh8HeWqr-4w0K0C-42" edge="1">
          <mxGeometry relative="1" as="geometry" />
        </mxCell>
        <mxCell id="Vbx-cMh8HeWqr-4w0K0C-70" style="edgeStyle=orthogonalEdgeStyle;rounded=1;orthogonalLoop=1;jettySize=auto;html=1;exitX=0.25;exitY=0;exitDx=0;exitDy=0;labelBackgroundColor=none;fontColor=default;" parent="1" source="Vbx-cMh8HeWqr-4w0K0C-41" edge="1">
          <mxGeometry relative="1" as="geometry">
            <mxPoint x="1920" y="201.15" as="targetPoint" />
          </mxGeometry>
        </mxCell>
        <mxCell id="Vbx-cMh8HeWqr-4w0K0C-72" style="edgeStyle=orthogonalEdgeStyle;rounded=1;orthogonalLoop=1;jettySize=auto;html=1;exitX=0.5;exitY=0;exitDx=0;exitDy=0;entryX=0.552;entryY=1.007;entryDx=0;entryDy=0;entryPerimeter=0;labelBackgroundColor=none;fontColor=default;" parent="1" source="Vbx-cMh8HeWqr-4w0K0C-41" target="Vbx-cMh8HeWqr-4w0K0C-45" edge="1">
          <mxGeometry relative="1" as="geometry">
            <Array as="points">
              <mxPoint x="1850" y="281.15" />
              <mxPoint x="2046" y="281.15" />
            </Array>
          </mxGeometry>
        </mxCell>
        <mxCell id="Vbx-cMh8HeWqr-4w0K0C-77" style="edgeStyle=orthogonalEdgeStyle;rounded=1;orthogonalLoop=1;jettySize=auto;html=1;exitX=1;exitY=0.25;exitDx=0;exitDy=0;entryX=0.5;entryY=1;entryDx=0;entryDy=0;labelBackgroundColor=none;fontColor=default;" parent="1" source="Vbx-cMh8HeWqr-4w0K0C-41" target="Vbx-cMh8HeWqr-4w0K0C-49" edge="1">
          <mxGeometry relative="1" as="geometry">
            <Array as="points">
              <mxPoint x="1940" y="346.15" />
              <mxPoint x="2144" y="346.15" />
              <mxPoint x="2144" y="326.15" />
            </Array>
          </mxGeometry>
        </mxCell>
        <mxCell id="Vbx-cMh8HeWqr-4w0K0C-78" style="edgeStyle=orthogonalEdgeStyle;rounded=1;orthogonalLoop=1;jettySize=auto;html=1;exitX=1;exitY=0.5;exitDx=0;exitDy=0;entryX=0;entryY=1;entryDx=0;entryDy=0;labelBackgroundColor=none;fontColor=default;" parent="1" source="Vbx-cMh8HeWqr-4w0K0C-41" target="Vbx-cMh8HeWqr-4w0K0C-48" edge="1">
          <mxGeometry relative="1" as="geometry" />
        </mxCell>
        <mxCell id="Vbx-cMh8HeWqr-4w0K0C-186" style="edgeStyle=orthogonalEdgeStyle;rounded=1;orthogonalLoop=1;jettySize=auto;html=1;exitX=0.75;exitY=0;exitDx=0;exitDy=0;entryX=0.5;entryY=1;entryDx=0;entryDy=0;labelBackgroundColor=none;fontColor=default;" parent="1" source="Vbx-cMh8HeWqr-4w0K0C-41" target="Vbx-cMh8HeWqr-4w0K0C-46" edge="1">
          <mxGeometry relative="1" as="geometry">
            <Array as="points">
              <mxPoint x="1895" y="296.15" />
              <mxPoint x="2140" y="296.15" />
            </Array>
          </mxGeometry>
        </mxCell>
        <mxCell id="A18H2YYV-nFkvodKzMuA-37" style="edgeStyle=orthogonalEdgeStyle;rounded=1;orthogonalLoop=1;jettySize=auto;html=1;exitX=1;exitY=0;exitDx=0;exitDy=0;labelBackgroundColor=none;fontColor=default;" parent="1" source="Vbx-cMh8HeWqr-4w0K0C-41" edge="1">
          <mxGeometry relative="1" as="geometry">
            <mxPoint x="2300" y="160" as="targetPoint" />
            <Array as="points">
              <mxPoint x="1940" y="310" />
              <mxPoint x="2300" y="310" />
            </Array>
          </mxGeometry>
        </mxCell>
        <mxCell id="Vbx-cMh8HeWqr-4w0K0C-41" value="&lt;font style=&quot;font-size: 21px;&quot;&gt;GUEST&lt;/font&gt;" style="rounded=1;whiteSpace=wrap;html=1;labelBackgroundColor=none;fillColor=#60a917;fontColor=#ffffff;strokeColor=#2D7600;" parent="1" vertex="1">
          <mxGeometry x="1760" y="341.15" width="180" height="60" as="geometry" />
        </mxCell>
        <mxCell id="Vbx-cMh8HeWqr-4w0K0C-42" value="&lt;span style=&quot;font-size: 18px;&quot;&gt;SSN&lt;/span&gt;" style="ellipse;whiteSpace=wrap;html=1;labelBackgroundColor=none;rounded=1;" parent="1" vertex="1">
          <mxGeometry x="1730" y="191.15" width="170" height="60" as="geometry" />
        </mxCell>
        <mxCell id="Vbx-cMh8HeWqr-4w0K0C-44" value="&lt;font style=&quot;font-size: 18px;&quot;&gt;&lt;u&gt;ID&lt;/u&gt;&lt;/font&gt;" style="ellipse;whiteSpace=wrap;html=1;rotation=5;labelBackgroundColor=none;rounded=1;" parent="1" vertex="1">
          <mxGeometry x="1840" y="140.28000000000003" width="170" height="60" as="geometry" />
        </mxCell>
        <mxCell id="Vbx-cMh8HeWqr-4w0K0C-45" value="&lt;font style=&quot;font-size: 18px;&quot;&gt;GENDER&lt;/font&gt;" style="ellipse;whiteSpace=wrap;html=1;rotation=15;labelBackgroundColor=none;rounded=1;fillColor=#dae8fc;gradientColor=#7ea6e0;strokeColor=#6c8ebf;" parent="1" vertex="1">
          <mxGeometry x="1960" y="101.15" width="170" height="60" as="geometry" />
        </mxCell>
        <mxCell id="Vbx-cMh8HeWqr-4w0K0C-46" value="&lt;font style=&quot;font-size: 18px;&quot;&gt;EMAIL&lt;/font&gt;" style="ellipse;whiteSpace=wrap;html=1;rotation=30;labelBackgroundColor=none;rounded=1;fillColor=#dae8fc;gradientColor=#7ea6e0;strokeColor=#6c8ebf;" parent="1" vertex="1">
          <mxGeometry x="2070" y="66.15" width="170" height="50" as="geometry" />
        </mxCell>
        <mxCell id="Vbx-cMh8HeWqr-4w0K0C-68" style="edgeStyle=orthogonalEdgeStyle;rounded=1;orthogonalLoop=1;jettySize=auto;html=1;exitX=0.5;exitY=0;exitDx=0;exitDy=0;labelBackgroundColor=none;fontColor=default;" parent="1" source="Vbx-cMh8HeWqr-4w0K0C-47" edge="1">
          <mxGeometry relative="1" as="geometry">
            <mxPoint x="2356.29" y="55.42000000000001" as="targetPoint" />
            <Array as="points">
              <mxPoint x="2316.29" y="97.42000000000002" />
              <mxPoint x="2316.29" y="55.42000000000001" />
            </Array>
          </mxGeometry>
        </mxCell>
        <mxCell id="A18H2YYV-nFkvodKzMuA-36" style="edgeStyle=orthogonalEdgeStyle;rounded=1;orthogonalLoop=1;jettySize=auto;html=1;exitX=0.5;exitY=0;exitDx=0;exitDy=0;labelBackgroundColor=none;fontColor=default;" parent="1" source="Vbx-cMh8HeWqr-4w0K0C-47" edge="1">
          <mxGeometry relative="1" as="geometry">
            <mxPoint x="2480" y="164" as="targetPoint" />
            <Array as="points">
              <mxPoint x="2322.29" y="118.27000000000001" />
              <mxPoint x="2424.29" y="118.27000000000001" />
              <mxPoint x="2424.29" y="164.27" />
            </Array>
          </mxGeometry>
        </mxCell>
        <mxCell id="Vbx-cMh8HeWqr-4w0K0C-47" value="&lt;font style=&quot;font-size: 18px;&quot;&gt;NAME&lt;/font&gt;" style="ellipse;whiteSpace=wrap;html=1;rotation=45;labelBackgroundColor=none;rounded=1;fillColor=#dae8fc;gradientColor=#7ea6e0;strokeColor=#6c8ebf;" parent="1" vertex="1">
          <mxGeometry x="2216.29" y="88.73000000000002" width="170" height="60" as="geometry" />
        </mxCell>
        <mxCell id="Vbx-cMh8HeWqr-4w0K0C-48" value="&lt;font style=&quot;font-size: 18px;&quot;&gt;CITY&lt;/font&gt;" style="ellipse;whiteSpace=wrap;html=1;rotation=60;labelBackgroundColor=none;rounded=1;fillColor=#dae8fc;gradientColor=#7ea6e0;strokeColor=#6c8ebf;" parent="1" vertex="1">
          <mxGeometry x="2290" y="381.15" width="170" height="60" as="geometry" />
        </mxCell>
        <mxCell id="Vbx-cMh8HeWqr-4w0K0C-49" value="&lt;font style=&quot;font-size: 18px;&quot;&gt;PHONE&lt;/font&gt;" style="ellipse;whiteSpace=wrap;html=1;rotation=50;labelBackgroundColor=none;rounded=1;fillColor=#dae8fc;gradientColor=#7ea6e0;strokeColor=#6c8ebf;" parent="1" vertex="1">
          <mxGeometry x="2340" y="276.73" width="170" height="60" as="geometry" />
        </mxCell>
        <mxCell id="Vbx-cMh8HeWqr-4w0K0C-51" value="&lt;font style=&quot;font-size: 18px;&quot;&gt;LNAME&lt;/font&gt;" style="ellipse;whiteSpace=wrap;html=1;rotation=45;labelBackgroundColor=none;rounded=1;fillColor=#dae8fc;gradientColor=#7ea6e0;strokeColor=#6c8ebf;" parent="1" vertex="1">
          <mxGeometry x="2426.29" y="119.46000000000001" width="170" height="60" as="geometry" />
        </mxCell>
        <mxCell id="Vbx-cMh8HeWqr-4w0K0C-52" value="&lt;font style=&quot;font-size: 18px;&quot;&gt;FNAME&lt;/font&gt;" style="ellipse;whiteSpace=wrap;html=1;rotation=45;labelBackgroundColor=none;rounded=1;fillColor=#dae8fc;gradientColor=#7ea6e0;strokeColor=#6c8ebf;" parent="1" vertex="1">
          <mxGeometry x="2286.29" y="-4.579999999999998" width="170" height="60" as="geometry" />
        </mxCell>
        <mxCell id="Vbx-cMh8HeWqr-4w0K0C-187" value="&lt;font style=&quot;font-size: 18px;&quot;&gt;RESERVE&lt;/font&gt;" style="rhombus;whiteSpace=wrap;html=1;rotation=0;labelBackgroundColor=none;rounded=1;fillColor=#e51400;fontColor=#ffffff;strokeColor=#B20000;" parent="1" vertex="1">
          <mxGeometry x="1500" y="328.86" width="121.56" height="112.29" as="geometry" />
        </mxCell>
        <mxCell id="Vbx-cMh8HeWqr-4w0K0C-195" value="" style="endArrow=none;html=1;rounded=1;shape=link;exitX=1;exitY=0.5;exitDx=0;exitDy=0;width=8.947368421052634;entryX=0;entryY=0.5;entryDx=0;entryDy=0;labelBackgroundColor=none;fontColor=default;" parent="1" source="Vbx-cMh8HeWqr-4w0K0C-1" target="Vbx-cMh8HeWqr-4w0K0C-187" edge="1">
          <mxGeometry width="50" height="50" relative="1" as="geometry">
            <mxPoint x="1268" y="511" as="sourcePoint" />
            <mxPoint x="1450" y="390" as="targetPoint" />
          </mxGeometry>
        </mxCell>
        <mxCell id="Vbx-cMh8HeWqr-4w0K0C-208" style="edgeStyle=orthogonalEdgeStyle;rounded=1;orthogonalLoop=1;jettySize=auto;html=1;exitX=1;exitY=0;exitDx=0;exitDy=0;entryX=0.43;entryY=1.045;entryDx=0;entryDy=0;entryPerimeter=0;labelBackgroundColor=none;fontColor=default;" parent="1" source="Vbx-cMh8HeWqr-4w0K0C-196" target="Vbx-cMh8HeWqr-4w0K0C-201" edge="1">
          <mxGeometry relative="1" as="geometry">
            <Array as="points">
              <mxPoint x="2260.5" y="710" />
            </Array>
          </mxGeometry>
        </mxCell>
        <mxCell id="Vbx-cMh8HeWqr-4w0K0C-210" style="edgeStyle=orthogonalEdgeStyle;rounded=1;orthogonalLoop=1;jettySize=auto;html=1;exitX=1;exitY=0.25;exitDx=0;exitDy=0;entryX=0.5;entryY=1;entryDx=0;entryDy=0;labelBackgroundColor=none;fontColor=default;" parent="1" source="Vbx-cMh8HeWqr-4w0K0C-196" target="Vbx-cMh8HeWqr-4w0K0C-202" edge="1">
          <mxGeometry relative="1" as="geometry">
            <Array as="points">
              <mxPoint x="1942.5" y="733" />
            </Array>
          </mxGeometry>
        </mxCell>
        <mxCell id="Vbx-cMh8HeWqr-4w0K0C-211" style="edgeStyle=orthogonalEdgeStyle;rounded=1;orthogonalLoop=1;jettySize=auto;html=1;exitX=1;exitY=0.75;exitDx=0;exitDy=0;entryX=0;entryY=1;entryDx=0;entryDy=0;labelBackgroundColor=none;fontColor=default;" parent="1" source="Vbx-cMh8HeWqr-4w0K0C-196" target="Vbx-cMh8HeWqr-4w0K0C-203" edge="1">
          <mxGeometry relative="1" as="geometry">
            <Array as="points">
              <mxPoint x="1942.5" y="770" />
              <mxPoint x="2180.5" y="770" />
              <mxPoint x="2180.5" y="809" />
            </Array>
          </mxGeometry>
        </mxCell>
        <mxCell id="Vbx-cMh8HeWqr-4w0K0C-196" value="&lt;font style=&quot;font-size: 21px;&quot;&gt;EVENT&lt;/font&gt;" style="rounded=1;whiteSpace=wrap;html=1;labelBackgroundColor=none;" parent="1" vertex="1">
          <mxGeometry x="1762.5" y="710" width="180" height="60" as="geometry" />
        </mxCell>
        <mxCell id="Vbx-cMh8HeWqr-4w0K0C-200" value="&lt;font style=&quot;font-size: 18px;&quot;&gt;SIZE&lt;/font&gt;" style="ellipse;whiteSpace=wrap;html=1;rotation=15;labelBackgroundColor=none;rounded=1;fillColor=#dae8fc;gradientColor=#7ea6e0;strokeColor=#6c8ebf;" parent="1" vertex="1">
          <mxGeometry x="2027.5" y="500" width="170" height="60" as="geometry" />
        </mxCell>
        <mxCell id="Vbx-cMh8HeWqr-4w0K0C-201" value="&lt;font style=&quot;font-size: 18px;&quot;&gt;TYPE&lt;/font&gt;" style="ellipse;whiteSpace=wrap;html=1;rotation=30;labelBackgroundColor=none;rounded=1;fillColor=#dae8fc;gradientColor=#7ea6e0;strokeColor=#6c8ebf;" parent="1" vertex="1">
          <mxGeometry x="2202.5" y="570" width="170" height="60" as="geometry" />
        </mxCell>
        <mxCell id="Vbx-cMh8HeWqr-4w0K0C-202" value="&lt;font style=&quot;font-size: 18px;&quot;&gt;PRICE&lt;/font&gt;" style="ellipse;whiteSpace=wrap;html=1;rotation=40;labelBackgroundColor=none;rounded=1;" parent="1" vertex="1">
          <mxGeometry x="2342.5" y="680" width="170" height="60" as="geometry" />
        </mxCell>
        <mxCell id="Vbx-cMh8HeWqr-4w0K0C-203" value="&lt;font style=&quot;font-size: 18px;&quot;&gt;PRICE&lt;/font&gt;" style="ellipse;whiteSpace=wrap;html=1;rotation=60;labelBackgroundColor=none;rounded=1;" parent="1" vertex="1">
          <mxGeometry x="2402.5" y="820" width="170" height="60" as="geometry" />
        </mxCell>
        <mxCell id="Vbx-cMh8HeWqr-4w0K0C-212" value="&lt;font style=&quot;font-size: 18px;&quot;&gt;RESERVE&lt;/font&gt;" style="rhombus;whiteSpace=wrap;html=1;rotation=30;labelBackgroundColor=none;rounded=1;fillColor=#e51400;fontColor=#ffffff;strokeColor=#B20000;" parent="1" vertex="1">
          <mxGeometry x="1500" y="524.8100000000001" width="121.56" height="112.29" as="geometry" />
        </mxCell>
        <mxCell id="Vbx-cMh8HeWqr-4w0K0C-217" style="edgeStyle=orthogonalEdgeStyle;rounded=1;orthogonalLoop=1;jettySize=auto;html=1;exitX=1;exitY=0.25;exitDx=0;exitDy=0;entryX=0.5;entryY=1;entryDx=0;entryDy=0;labelBackgroundColor=none;fontColor=default;" parent="1" source="Vbx-cMh8HeWqr-4w0K0C-219" target="Vbx-cMh8HeWqr-4w0K0C-221" edge="1">
          <mxGeometry relative="1" as="geometry">
            <Array as="points">
              <mxPoint x="1942.5" y="733" />
            </Array>
          </mxGeometry>
        </mxCell>
        <mxCell id="Vbx-cMh8HeWqr-4w0K0C-218" style="edgeStyle=orthogonalEdgeStyle;rounded=1;orthogonalLoop=1;jettySize=auto;html=1;exitX=1;exitY=0.75;exitDx=0;exitDy=0;entryX=0;entryY=1;entryDx=0;entryDy=0;labelBackgroundColor=none;fontColor=default;" parent="1" source="Vbx-cMh8HeWqr-4w0K0C-219" target="Vbx-cMh8HeWqr-4w0K0C-222" edge="1">
          <mxGeometry relative="1" as="geometry">
            <Array as="points">
              <mxPoint x="1942.5" y="770" />
              <mxPoint x="2180.5" y="770" />
              <mxPoint x="2180.5" y="809" />
            </Array>
          </mxGeometry>
        </mxCell>
        <mxCell id="Vbx-cMh8HeWqr-4w0K0C-235" style="edgeStyle=orthogonalEdgeStyle;rounded=1;orthogonalLoop=1;jettySize=auto;html=1;exitX=0.5;exitY=0;exitDx=0;exitDy=0;entryX=0.582;entryY=0.984;entryDx=0;entryDy=0;entryPerimeter=0;labelBackgroundColor=none;fontColor=default;" parent="1" source="Vbx-cMh8HeWqr-4w0K0C-219" target="Vbx-cMh8HeWqr-4w0K0C-200" edge="1">
          <mxGeometry relative="1" as="geometry">
            <Array as="points">
              <mxPoint x="1852.5" y="680" />
              <mxPoint x="2118.5" y="680" />
            </Array>
          </mxGeometry>
        </mxCell>
        <mxCell id="A18H2YYV-nFkvodKzMuA-10" style="edgeStyle=orthogonalEdgeStyle;rounded=1;orthogonalLoop=1;jettySize=auto;html=1;exitX=0.25;exitY=0;exitDx=0;exitDy=0;labelBackgroundColor=none;fontColor=default;" parent="1" source="Vbx-cMh8HeWqr-4w0K0C-219" edge="1">
          <mxGeometry relative="1" as="geometry">
            <mxPoint x="2028" y="610" as="targetPoint" />
            <Array as="points">
              <mxPoint x="1828" y="710" />
              <mxPoint x="1828" y="665" />
              <mxPoint x="2028" y="665" />
            </Array>
          </mxGeometry>
        </mxCell>
        <mxCell id="A18H2YYV-nFkvodKzMuA-17" style="edgeStyle=orthogonalEdgeStyle;rounded=1;orthogonalLoop=1;jettySize=auto;html=1;exitX=0;exitY=0.333;exitDx=0;exitDy=0;entryX=0.5;entryY=1;entryDx=0;entryDy=0;labelBackgroundColor=none;fontColor=default;exitPerimeter=0;" parent="1" source="Vbx-cMh8HeWqr-4w0K0C-219" target="Vbx-cMh8HeWqr-4w0K0C-220" edge="1">
          <mxGeometry relative="1" as="geometry">
            <Array as="points">
              <mxPoint x="1763" y="650" />
              <mxPoint x="1823" y="650" />
            </Array>
          </mxGeometry>
        </mxCell>
        <mxCell id="Vbx-cMh8HeWqr-4w0K0C-219" value="&lt;font style=&quot;font-size: 21px;&quot;&gt;EVENT&lt;/font&gt;" style="rounded=1;whiteSpace=wrap;html=1;labelBackgroundColor=none;fillColor=#60a917;fontColor=#ffffff;strokeColor=#2D7600;" parent="1" vertex="1">
          <mxGeometry x="1762.5" y="710" width="180" height="60" as="geometry" />
        </mxCell>
        <mxCell id="Vbx-cMh8HeWqr-4w0K0C-220" value="&lt;span style=&quot;font-size: 18px;&quot;&gt;TIME&lt;/span&gt;" style="ellipse;whiteSpace=wrap;html=1;labelBackgroundColor=none;rounded=1;fillColor=#dae8fc;gradientColor=#7ea6e0;strokeColor=#6c8ebf;" parent="1" vertex="1">
          <mxGeometry x="1737.5" y="560" width="170" height="60" as="geometry" />
        </mxCell>
        <mxCell id="Vbx-cMh8HeWqr-4w0K0C-221" value="&lt;font style=&quot;font-size: 18px;&quot;&gt;PRICE&lt;/font&gt;" style="ellipse;whiteSpace=wrap;html=1;rotation=40;labelBackgroundColor=none;rounded=1;fillColor=#dae8fc;gradientColor=#7ea6e0;strokeColor=#6c8ebf;" parent="1" vertex="1">
          <mxGeometry x="2342.5" y="680" width="170" height="60" as="geometry" />
        </mxCell>
        <mxCell id="Vbx-cMh8HeWqr-4w0K0C-222" value="&lt;font style=&quot;font-size: 18px;&quot;&gt;LOCATION&lt;/font&gt;" style="ellipse;whiteSpace=wrap;html=1;rotation=60;labelBackgroundColor=none;rounded=1;fillColor=#dae8fc;gradientColor=#7ea6e0;strokeColor=#6c8ebf;" parent="1" vertex="1">
          <mxGeometry x="2402.5" y="820" width="170" height="60" as="geometry" />
        </mxCell>
        <mxCell id="Vbx-cMh8HeWqr-4w0K0C-223" value="&lt;font style=&quot;font-size: 18px;&quot;&gt;&lt;u&gt;ID&lt;/u&gt;&lt;/font&gt;" style="ellipse;whiteSpace=wrap;html=1;rotation=5;labelBackgroundColor=none;rounded=1;fillColor=#dae8fc;gradientColor=#7ea6e0;strokeColor=#6c8ebf;" parent="1" vertex="1">
          <mxGeometry x="1917.5" y="550.96" width="170" height="60" as="geometry" />
        </mxCell>
        <mxCell id="Vbx-cMh8HeWqr-4w0K0C-237" value="" style="endArrow=none;html=1;rounded=1;exitX=0;exitY=0.5;exitDx=0;exitDy=0;entryX=1;entryY=1;entryDx=0;entryDy=0;labelBackgroundColor=none;fontColor=default;" parent="1" source="Vbx-cMh8HeWqr-4w0K0C-212" target="Vbx-cMh8HeWqr-4w0K0C-1" edge="1">
          <mxGeometry width="50" height="50" relative="1" as="geometry">
            <mxPoint x="1260" y="470" as="sourcePoint" />
            <mxPoint x="1310" y="420" as="targetPoint" />
          </mxGeometry>
        </mxCell>
        <mxCell id="Vbx-cMh8HeWqr-4w0K0C-239" value="" style="endArrow=none;html=1;rounded=1;entryX=1;entryY=0.5;entryDx=0;entryDy=0;exitX=0;exitY=0;exitDx=0;exitDy=0;labelBackgroundColor=none;fontColor=default;" parent="1" source="Vbx-cMh8HeWqr-4w0K0C-219" target="Vbx-cMh8HeWqr-4w0K0C-212" edge="1">
          <mxGeometry width="50" height="50" relative="1" as="geometry">
            <mxPoint x="1746.58" y="720" as="sourcePoint" />
            <mxPoint x="1649.997024042018" y="640.3950000000004" as="targetPoint" />
          </mxGeometry>
        </mxCell>
        <mxCell id="Vbx-cMh8HeWqr-4w0K0C-262" style="edgeStyle=orthogonalEdgeStyle;rounded=1;orthogonalLoop=1;jettySize=auto;html=1;exitX=0;exitY=1;exitDx=0;exitDy=0;entryX=1;entryY=1;entryDx=0;entryDy=0;labelBackgroundColor=none;fontColor=default;" parent="1" source="Vbx-cMh8HeWqr-4w0K0C-240" target="Vbx-cMh8HeWqr-4w0K0C-245" edge="1">
          <mxGeometry relative="1" as="geometry">
            <Array as="points">
              <mxPoint x="250" y="768.07" />
              <mxPoint x="250" y="810.07" />
            </Array>
          </mxGeometry>
        </mxCell>
        <mxCell id="Vbx-cMh8HeWqr-4w0K0C-264" style="edgeStyle=orthogonalEdgeStyle;rounded=1;orthogonalLoop=1;jettySize=auto;html=1;exitX=0;exitY=0;exitDx=0;exitDy=0;entryX=0;entryY=1;entryDx=0;entryDy=0;labelBackgroundColor=none;fontColor=default;" parent="1" source="Vbx-cMh8HeWqr-4w0K0C-240" target="Vbx-cMh8HeWqr-4w0K0C-252" edge="1">
          <mxGeometry relative="1" as="geometry">
            <Array as="points">
              <mxPoint x="103" y="708.07" />
            </Array>
          </mxGeometry>
        </mxCell>
        <mxCell id="Vbx-cMh8HeWqr-4w0K0C-265" style="edgeStyle=orthogonalEdgeStyle;rounded=1;orthogonalLoop=1;jettySize=auto;html=1;exitX=0;exitY=0.5;exitDx=0;exitDy=0;labelBackgroundColor=none;fontColor=default;" parent="1" source="Vbx-cMh8HeWqr-4w0K0C-240" edge="1">
          <mxGeometry relative="1" as="geometry">
            <mxPoint x="20.000000000000455" y="737.07" as="targetPoint" />
          </mxGeometry>
        </mxCell>
        <mxCell id="Vbx-cMh8HeWqr-4w0K0C-268" style="edgeStyle=orthogonalEdgeStyle;rounded=1;orthogonalLoop=1;jettySize=auto;html=1;exitX=0.25;exitY=0;exitDx=0;exitDy=0;labelBackgroundColor=none;fontColor=default;" parent="1" source="Vbx-cMh8HeWqr-4w0K0C-240" edge="1">
          <mxGeometry relative="1" as="geometry">
            <mxPoint x="270" y="570" as="targetPoint" />
            <Array as="points">
              <mxPoint x="550" y="708.07" />
              <mxPoint x="550" y="678.07" />
              <mxPoint x="270" y="678.07" />
            </Array>
          </mxGeometry>
        </mxCell>
        <mxCell id="Vbx-cMh8HeWqr-4w0K0C-270" style="edgeStyle=orthogonalEdgeStyle;rounded=1;orthogonalLoop=1;jettySize=auto;html=1;exitX=0.5;exitY=0;exitDx=0;exitDy=0;entryX=0.318;entryY=0.948;entryDx=0;entryDy=0;entryPerimeter=0;labelBackgroundColor=none;fontColor=default;" parent="1" source="Vbx-cMh8HeWqr-4w0K0C-240" target="Vbx-cMh8HeWqr-4w0K0C-254" edge="1">
          <mxGeometry relative="1" as="geometry">
            <Array as="points">
              <mxPoint x="630" y="659.04" />
              <mxPoint x="574" y="659.04" />
            </Array>
          </mxGeometry>
        </mxCell>
        <mxCell id="A18H2YYV-nFkvodKzMuA-5" style="edgeStyle=orthogonalEdgeStyle;rounded=1;orthogonalLoop=1;jettySize=auto;html=1;exitX=0.25;exitY=0;exitDx=0;exitDy=0;entryX=0.5;entryY=1;entryDx=0;entryDy=0;labelBackgroundColor=none;fontColor=default;" parent="1" source="Vbx-cMh8HeWqr-4w0K0C-240" edge="1">
          <mxGeometry relative="1" as="geometry">
            <mxPoint x="465" y="579.04" as="targetPoint" />
            <Array as="points">
              <mxPoint x="585" y="669.04" />
              <mxPoint x="465" y="669.04" />
            </Array>
          </mxGeometry>
        </mxCell>
        <mxCell id="Vbx-cMh8HeWqr-4w0K0C-240" value="&lt;font style=&quot;font-size: 21px;&quot;&gt;SERVICE&lt;/font&gt;" style="rounded=1;whiteSpace=wrap;html=1;labelBackgroundColor=none;fillColor=#60a917;fontColor=#ffffff;strokeColor=#2D7600;" parent="1" vertex="1">
          <mxGeometry x="540" y="708.07" width="180" height="60" as="geometry" />
        </mxCell>
        <mxCell id="Vbx-cMh8HeWqr-4w0K0C-241" value="&lt;font style=&quot;font-size: 21px;&quot;&gt;HAS&lt;/font&gt;" style="rhombus;whiteSpace=wrap;html=1;rotation=-35;labelBackgroundColor=none;rounded=1;fillColor=#e51400;fontColor=#ffffff;strokeColor=#B20000;" parent="1" vertex="1">
          <mxGeometry x="839.9999999999999" y="515.78" width="121.56" height="112.29" as="geometry" />
        </mxCell>
        <mxCell id="Vbx-cMh8HeWqr-4w0K0C-243" value="" style="endArrow=none;html=1;rounded=1;entryX=0;entryY=0.5;entryDx=0;entryDy=0;exitX=1;exitY=0;exitDx=0;exitDy=0;labelBackgroundColor=none;fontColor=default;" parent="1" source="Vbx-cMh8HeWqr-4w0K0C-240" edge="1">
          <mxGeometry width="50" height="50" relative="1" as="geometry">
            <mxPoint x="710" y="696.15" as="sourcePoint" />
            <mxPoint x="850.991938748115" y="601.0069758014159" as="targetPoint" />
          </mxGeometry>
        </mxCell>
        <mxCell id="Vbx-cMh8HeWqr-4w0K0C-244" value="" style="endArrow=none;html=1;rounded=1;exitX=1;exitY=0.5;exitDx=0;exitDy=0;entryX=0;entryY=1;entryDx=0;entryDy=0;labelBackgroundColor=none;fontColor=default;" parent="1" source="Vbx-cMh8HeWqr-4w0K0C-241" target="Vbx-cMh8HeWqr-4w0K0C-1" edge="1">
          <mxGeometry width="50" height="50" relative="1" as="geometry">
            <mxPoint x="970" y="540" as="sourcePoint" />
            <mxPoint x="1140" y="420" as="targetPoint" />
          </mxGeometry>
        </mxCell>
        <mxCell id="Vbx-cMh8HeWqr-4w0K0C-245" value="&lt;span style=&quot;font-size: 18px;&quot;&gt;&lt;u&gt;ID&lt;/u&gt;&lt;/span&gt;" style="ellipse;whiteSpace=wrap;html=1;rotation=-55;labelBackgroundColor=none;rounded=1;fillColor=#dae8fc;gradientColor=#7ea6e0;strokeColor=#6c8ebf;" parent="1" vertex="1">
          <mxGeometry x="-120" y="818.07" width="170" height="60" as="geometry" />
        </mxCell>
        <mxCell id="Vbx-cMh8HeWqr-4w0K0C-246" value="&lt;span style=&quot;font-size: 18px;&quot;&gt;CODE&lt;/span&gt;" style="ellipse;whiteSpace=wrap;html=1;rotation=-45;labelBackgroundColor=none;rounded=1;fillColor=#dae8fc;gradientColor=#7ea6e0;strokeColor=#6c8ebf;" parent="1" vertex="1">
          <mxGeometry x="-80" y="678.07" width="170" height="60" as="geometry" />
        </mxCell>
        <mxCell id="Vbx-cMh8HeWqr-4w0K0C-252" value="&lt;span style=&quot;font-size: 18px;&quot;&gt;TYPE&lt;/span&gt;" style="ellipse;whiteSpace=wrap;html=1;rotation=-30;labelBackgroundColor=none;rounded=1;fillColor=#dae8fc;gradientColor=#7ea6e0;strokeColor=#6c8ebf;" parent="1" vertex="1">
          <mxGeometry x="60" y="568.07" width="170" height="60" as="geometry" />
        </mxCell>
        <mxCell id="Vbx-cMh8HeWqr-4w0K0C-253" value="&lt;span style=&quot;font-size: 18px;&quot;&gt;OFFERS&lt;/span&gt;" style="ellipse;whiteSpace=wrap;html=1;rotation=-10;labelBackgroundColor=none;rounded=1;" parent="1" vertex="1">
          <mxGeometry x="220" y="500" width="170" height="60" as="geometry" />
        </mxCell>
        <mxCell id="Vbx-cMh8HeWqr-4w0K0C-254" value="&lt;span style=&quot;font-size: 18px;&quot;&gt;DISCOUNT&lt;/span&gt;" style="ellipse;whiteSpace=wrap;html=1;rotation=0;labelBackgroundColor=none;rounded=1;" parent="1" vertex="1">
          <mxGeometry x="520" y="560.0000000000001" width="170" height="60" as="geometry" />
        </mxCell>
        <mxCell id="Vbx-cMh8HeWqr-4w0K0C-258" value="&lt;span style=&quot;font-size: 18px;&quot;&gt;NAEM&lt;/span&gt;" style="ellipse;whiteSpace=wrap;html=1;rotation=0;labelBackgroundColor=none;rounded=1;" parent="1" vertex="1">
          <mxGeometry x="400" y="510.0000000000001" width="170" height="60" as="geometry" />
        </mxCell>
        <mxCell id="Vbx-cMh8HeWqr-4w0K0C-315" style="edgeStyle=orthogonalEdgeStyle;rounded=1;orthogonalLoop=1;jettySize=auto;html=1;exitX=0;exitY=0.5;exitDx=0;exitDy=0;entryX=1;entryY=0.5;entryDx=0;entryDy=0;labelBackgroundColor=none;fontColor=default;" parent="1" source="Vbx-cMh8HeWqr-4w0K0C-271" target="Vbx-cMh8HeWqr-4w0K0C-285" edge="1">
          <mxGeometry relative="1" as="geometry">
            <Array as="points">
              <mxPoint x="540" y="355" />
              <mxPoint x="560" y="355" />
            </Array>
            <mxPoint x="83.1298796690362" y="356.23415231887145" as="targetPoint" />
          </mxGeometry>
        </mxCell>
        <mxCell id="Vbx-cMh8HeWqr-4w0K0C-322" style="edgeStyle=orthogonalEdgeStyle;rounded=1;orthogonalLoop=1;jettySize=auto;html=1;exitX=0;exitY=0.25;exitDx=0;exitDy=0;entryX=0.5;entryY=1;entryDx=0;entryDy=0;labelBackgroundColor=none;fontColor=default;" parent="1" source="Vbx-cMh8HeWqr-4w0K0C-271" target="Vbx-cMh8HeWqr-4w0K0C-286" edge="1">
          <mxGeometry relative="1" as="geometry">
            <Array as="points">
              <mxPoint x="540" y="341.19" />
              <mxPoint x="180" y="341.19" />
              <mxPoint x="180" y="282.19" />
            </Array>
          </mxGeometry>
        </mxCell>
        <mxCell id="Vbx-cMh8HeWqr-4w0K0C-328" style="edgeStyle=orthogonalEdgeStyle;rounded=1;orthogonalLoop=1;jettySize=auto;html=1;exitX=0;exitY=0;exitDx=0;exitDy=0;entryX=0.5;entryY=1;entryDx=0;entryDy=0;labelBackgroundColor=none;fontColor=default;" parent="1" source="Vbx-cMh8HeWqr-4w0K0C-271" target="Vbx-cMh8HeWqr-4w0K0C-284" edge="1">
          <mxGeometry relative="1" as="geometry">
            <Array as="points">
              <mxPoint x="540" y="320" />
              <mxPoint x="220" y="320" />
            </Array>
          </mxGeometry>
        </mxCell>
        <mxCell id="A18H2YYV-nFkvodKzMuA-61" style="edgeStyle=orthogonalEdgeStyle;rounded=1;orthogonalLoop=1;jettySize=auto;html=1;exitX=0.5;exitY=0;exitDx=0;exitDy=0;entryX=0.5;entryY=1;entryDx=0;entryDy=0;labelBackgroundColor=none;fontColor=default;" parent="1" source="Vbx-cMh8HeWqr-4w0K0C-271" target="Vbx-cMh8HeWqr-4w0K0C-289" edge="1">
          <mxGeometry relative="1" as="geometry" />
        </mxCell>
        <mxCell id="A18H2YYV-nFkvodKzMuA-62" style="edgeStyle=orthogonalEdgeStyle;rounded=1;orthogonalLoop=1;jettySize=auto;html=1;exitX=0.25;exitY=0;exitDx=0;exitDy=0;entryX=0.353;entryY=0.931;entryDx=0;entryDy=0;entryPerimeter=0;labelBackgroundColor=none;fontColor=default;" parent="1" source="Vbx-cMh8HeWqr-4w0K0C-271" target="Vbx-cMh8HeWqr-4w0K0C-290" edge="1">
          <mxGeometry relative="1" as="geometry">
            <Array as="points">
              <mxPoint x="585" y="280" />
              <mxPoint x="480" y="280" />
            </Array>
          </mxGeometry>
        </mxCell>
        <mxCell id="A18H2YYV-nFkvodKzMuA-63" style="edgeStyle=orthogonalEdgeStyle;rounded=1;orthogonalLoop=1;jettySize=auto;html=1;exitX=0.25;exitY=0;exitDx=0;exitDy=0;labelBackgroundColor=none;fontColor=default;entryX=0.278;entryY=1.003;entryDx=0;entryDy=0;entryPerimeter=0;" parent="1" source="Vbx-cMh8HeWqr-4w0K0C-271" target="Vbx-cMh8HeWqr-4w0K0C-302" edge="1">
          <mxGeometry relative="1" as="geometry">
            <mxPoint x="399.99999999999955" y="120" as="targetPoint" />
            <Array as="points">
              <mxPoint x="550" y="336" />
              <mxPoint x="550" y="290" />
              <mxPoint x="400" y="290" />
            </Array>
          </mxGeometry>
        </mxCell>
        <mxCell id="A18H2YYV-nFkvodKzMuA-64" style="edgeStyle=orthogonalEdgeStyle;rounded=1;orthogonalLoop=1;jettySize=auto;html=1;exitX=0;exitY=0;exitDx=0;exitDy=0;entryX=0.717;entryY=0.948;entryDx=0;entryDy=0;entryPerimeter=0;labelBackgroundColor=none;fontColor=default;" parent="1" source="Vbx-cMh8HeWqr-4w0K0C-271" target="Vbx-cMh8HeWqr-4w0K0C-307" edge="1">
          <mxGeometry relative="1" as="geometry">
            <Array as="points">
              <mxPoint x="540" y="300" />
              <mxPoint x="314" y="300" />
            </Array>
          </mxGeometry>
        </mxCell>
        <mxCell id="caW7DvYXRnzaEFbuXi8Y-16" style="edgeStyle=orthogonalEdgeStyle;rounded=0;orthogonalLoop=1;jettySize=auto;html=1;exitX=0;exitY=0.5;exitDx=0;exitDy=0;entryX=0.974;entryY=0.158;entryDx=0;entryDy=0;entryPerimeter=0;" parent="1" source="Vbx-cMh8HeWqr-4w0K0C-271" target="caW7DvYXRnzaEFbuXi8Y-14" edge="1">
          <mxGeometry relative="1" as="geometry">
            <mxPoint x="140" y="410" as="targetPoint" />
            <Array as="points">
              <mxPoint x="540" y="380" />
              <mxPoint x="130" y="380" />
            </Array>
          </mxGeometry>
        </mxCell>
        <mxCell id="Vbx-cMh8HeWqr-4w0K0C-271" value="&lt;font style=&quot;font-size: 21px;&quot;&gt;EMPLOYEE&lt;/font&gt;" style="rounded=1;whiteSpace=wrap;html=1;labelBackgroundColor=none;fillColor=#60a917;fontColor=#ffffff;strokeColor=#2D7600;" parent="1" vertex="1">
          <mxGeometry x="540" y="336.15" width="180" height="60" as="geometry" />
        </mxCell>
        <mxCell id="Vbx-cMh8HeWqr-4w0K0C-272" value="&lt;span style=&quot;font-size: 18px;&quot;&gt;SSN&lt;/span&gt;" style="ellipse;whiteSpace=wrap;html=1;labelBackgroundColor=none;rounded=1;" parent="1" vertex="1">
          <mxGeometry x="1730" y="191.15" width="170" height="60" as="geometry" />
        </mxCell>
        <mxCell id="Vbx-cMh8HeWqr-4w0K0C-273" value="&lt;span style=&quot;font-size: 18px;&quot;&gt;AGE&lt;/span&gt;" style="ellipse;whiteSpace=wrap;html=1;labelBackgroundColor=none;rounded=1;fillColor=#dae8fc;gradientColor=#7ea6e0;strokeColor=#6c8ebf;" parent="1" vertex="1">
          <mxGeometry x="1730" y="191.15" width="170" height="60" as="geometry" />
        </mxCell>
        <mxCell id="Vbx-cMh8HeWqr-4w0K0C-274" value="&lt;font style=&quot;font-size: 18px;&quot;&gt;&lt;u&gt;SSN&lt;/u&gt;&lt;/font&gt;" style="ellipse;whiteSpace=wrap;html=1;rotation=5;labelBackgroundColor=none;rounded=1;fillColor=#dae8fc;gradientColor=#7ea6e0;strokeColor=#6c8ebf;" parent="1" vertex="1">
          <mxGeometry x="1840" y="140.28000000000003" width="170" height="60" as="geometry" />
        </mxCell>
        <mxCell id="Vbx-cMh8HeWqr-4w0K0C-294" style="edgeStyle=orthogonalEdgeStyle;rounded=1;orthogonalLoop=1;jettySize=auto;html=1;exitX=0.5;exitY=0;exitDx=0;exitDy=0;labelBackgroundColor=none;fontColor=default;" parent="1" source="Vbx-cMh8HeWqr-4w0K0C-284" edge="1">
          <mxGeometry relative="1" as="geometry">
            <mxPoint x="-29.999999999999545" y="130.19" as="targetPoint" />
            <Array as="points">
              <mxPoint x="190" y="100.19000000000003" />
              <mxPoint x="100" y="100.19000000000003" />
              <mxPoint x="100" y="130.19" />
            </Array>
          </mxGeometry>
        </mxCell>
        <mxCell id="Vbx-cMh8HeWqr-4w0K0C-334" style="edgeStyle=orthogonalEdgeStyle;rounded=1;orthogonalLoop=1;jettySize=auto;html=1;exitX=0.5;exitY=0;exitDx=0;exitDy=0;labelBackgroundColor=none;fontColor=default;" parent="1" source="Vbx-cMh8HeWqr-4w0K0C-284" edge="1">
          <mxGeometry relative="1" as="geometry">
            <mxPoint x="130" y="41" as="targetPoint" />
          </mxGeometry>
        </mxCell>
        <mxCell id="Vbx-cMh8HeWqr-4w0K0C-284" value="&lt;font style=&quot;font-size: 18px;&quot;&gt;NAME&lt;/font&gt;" style="ellipse;whiteSpace=wrap;html=1;rotation=-30;labelBackgroundColor=none;rounded=1;fillColor=#dae8fc;gradientColor=#7ea6e0;strokeColor=#6c8ebf;" parent="1" vertex="1">
          <mxGeometry x="120" y="95.19000000000003" width="170" height="60" as="geometry" />
        </mxCell>
        <mxCell id="Vbx-cMh8HeWqr-4w0K0C-285" value="&lt;font style=&quot;font-size: 18px;&quot;&gt;SALARY&lt;/font&gt;" style="ellipse;whiteSpace=wrap;html=1;rotation=-43;labelBackgroundColor=none;rounded=1;fillColor=#dae8fc;gradientColor=#7ea6e0;strokeColor=#6c8ebf;" parent="1" vertex="1">
          <mxGeometry x="-80" y="381.15" width="170" height="60" as="geometry" />
        </mxCell>
        <mxCell id="Vbx-cMh8HeWqr-4w0K0C-286" value="&lt;font style=&quot;font-size: 18px;&quot;&gt;PHONE&lt;/font&gt;" style="ellipse;whiteSpace=wrap;html=1;rotation=-30;labelBackgroundColor=none;rounded=1;fillColor=#dae8fc;gradientColor=#7ea6e0;strokeColor=#6c8ebf;" parent="1" vertex="1">
          <mxGeometry x="-20" y="226.73000000000005" width="170" height="60" as="geometry" />
        </mxCell>
        <mxCell id="Vbx-cMh8HeWqr-4w0K0C-287" value="&lt;font style=&quot;font-size: 18px;&quot;&gt;LNAME&lt;/font&gt;" style="ellipse;whiteSpace=wrap;html=1;rotation=-30;labelBackgroundColor=none;rounded=1;fillColor=#dae8fc;gradientColor=#7ea6e0;strokeColor=#6c8ebf;" parent="1" vertex="1">
          <mxGeometry x="30" y="-28.85" width="170" height="60" as="geometry" />
        </mxCell>
        <mxCell id="Vbx-cMh8HeWqr-4w0K0C-288" value="&lt;font style=&quot;font-size: 18px;&quot;&gt;FNAME&lt;/font&gt;" style="ellipse;whiteSpace=wrap;html=1;rotation=-40;labelBackgroundColor=none;rounded=1;fillColor=#dae8fc;gradientColor=#7ea6e0;strokeColor=#6c8ebf;" parent="1" vertex="1">
          <mxGeometry x="-120" y="63.17000000000001" width="170" height="60" as="geometry" />
        </mxCell>
        <mxCell id="Vbx-cMh8HeWqr-4w0K0C-289" value="&lt;span style=&quot;font-size: 18px;&quot;&gt;CITY&lt;/span&gt;" style="ellipse;whiteSpace=wrap;html=1;labelBackgroundColor=none;rounded=1;fillColor=#dae8fc;gradientColor=#7ea6e0;strokeColor=#6c8ebf;" parent="1" vertex="1">
          <mxGeometry x="510" y="191.15" width="170" height="60" as="geometry" />
        </mxCell>
        <mxCell id="Vbx-cMh8HeWqr-4w0K0C-290" value="&lt;font style=&quot;font-size: 18px;&quot;&gt;&lt;u&gt;SSN&lt;/u&gt;&lt;/font&gt;" style="ellipse;whiteSpace=wrap;html=1;rotation=0;labelBackgroundColor=none;rounded=1;fillColor=#dae8fc;gradientColor=#7ea6e0;strokeColor=#6c8ebf;" parent="1" vertex="1">
          <mxGeometry x="420" y="114.13" width="170" height="60" as="geometry" />
        </mxCell>
        <mxCell id="Vbx-cMh8HeWqr-4w0K0C-302" value="&lt;font style=&quot;font-size: 18px;&quot;&gt;GENDER&lt;/font&gt;" style="ellipse;whiteSpace=wrap;html=1;rotation=-5;labelBackgroundColor=none;rounded=1;fillColor=#dae8fc;gradientColor=#7ea6e0;strokeColor=#6c8ebf;" parent="1" vertex="1">
          <mxGeometry x="350" y="41.15" width="170" height="60" as="geometry" />
        </mxCell>
        <mxCell id="Vbx-cMh8HeWqr-4w0K0C-307" value="&lt;font style=&quot;font-size: 18px;&quot;&gt;GENDER&lt;/font&gt;" style="ellipse;whiteSpace=wrap;html=1;rotation=15;labelBackgroundColor=none;rounded=1;fillColor=#dae8fc;gradientColor=#7ea6e0;strokeColor=#6c8ebf;" parent="1" vertex="1">
          <mxGeometry x="200" y="-18.85" width="170" height="60" as="geometry" />
        </mxCell>
        <mxCell id="Vbx-cMh8HeWqr-4w0K0C-323" value="&lt;font style=&quot;font-size: 18px;&quot;&gt;WORK&lt;/font&gt;" style="rhombus;whiteSpace=wrap;html=1;rotation=0;labelBackgroundColor=none;rounded=1;fillColor=#e51400;fontColor=#ffffff;strokeColor=#B20000;" parent="1" vertex="1">
          <mxGeometry x="840" y="328.86" width="121.56" height="112.29" as="geometry" />
        </mxCell>
        <mxCell id="A18H2YYV-nFkvodKzMuA-3" value="" style="endArrow=none;html=1;rounded=1;shape=link;width=8.947368421052634;entryX=0;entryY=0.5;entryDx=0;entryDy=0;labelBackgroundColor=none;fontColor=default;" parent="1" source="Vbx-cMh8HeWqr-4w0K0C-323" edge="1">
          <mxGeometry width="50" height="50" relative="1" as="geometry">
            <mxPoint x="1010" y="384" as="sourcePoint" />
            <mxPoint x="1140" y="384" as="targetPoint" />
          </mxGeometry>
        </mxCell>
        <mxCell id="A18H2YYV-nFkvodKzMuA-4" value="" style="endArrow=none;html=1;rounded=1;entryX=0;entryY=0.5;entryDx=0;entryDy=0;labelBackgroundColor=none;fontColor=default;" parent="1" target="Vbx-cMh8HeWqr-4w0K0C-323" edge="1">
          <mxGeometry width="50" height="50" relative="1" as="geometry">
            <mxPoint x="720" y="385" as="sourcePoint" />
            <mxPoint x="840" y="380" as="targetPoint" />
          </mxGeometry>
        </mxCell>
        <mxCell id="A18H2YYV-nFkvodKzMuA-6" value="&lt;font style=&quot;font-size: 18px;&quot;&gt;WORK&lt;/font&gt;" style="rhombus;whiteSpace=wrap;html=1;rotation=0;labelBackgroundColor=none;rounded=1;fillColor=#e51400;fontColor=#ffffff;strokeColor=#B20000;" parent="1" vertex="1">
          <mxGeometry x="660" y="473.86" width="121.56" height="112.29" as="geometry" />
        </mxCell>
        <mxCell id="A18H2YYV-nFkvodKzMuA-7" value="" style="endArrow=none;html=1;rounded=1;shape=link;width=8.947368421052634;exitX=1;exitY=0;exitDx=0;exitDy=0;labelBackgroundColor=none;fontColor=default;" parent="1" source="Vbx-cMh8HeWqr-4w0K0C-240" target="A18H2YYV-nFkvodKzMuA-6" edge="1">
          <mxGeometry width="50" height="50" relative="1" as="geometry">
            <mxPoint x="670" y="670.03" as="sourcePoint" />
            <mxPoint x="750" y="590" as="targetPoint" />
          </mxGeometry>
        </mxCell>
        <mxCell id="A18H2YYV-nFkvodKzMuA-8" value="" style="endArrow=none;html=1;rounded=1;exitX=1;exitY=1;exitDx=0;exitDy=0;entryX=0.5;entryY=0;entryDx=0;entryDy=0;labelBackgroundColor=none;fontColor=default;" parent="1" source="Vbx-cMh8HeWqr-4w0K0C-271" target="A18H2YYV-nFkvodKzMuA-6" edge="1">
          <mxGeometry width="50" height="50" relative="1" as="geometry">
            <mxPoint x="680" y="520" as="sourcePoint" />
            <mxPoint x="730" y="470" as="targetPoint" />
          </mxGeometry>
        </mxCell>
        <mxCell id="A18H2YYV-nFkvodKzMuA-51" style="edgeStyle=orthogonalEdgeStyle;rounded=1;orthogonalLoop=1;jettySize=auto;html=1;exitX=1;exitY=0;exitDx=0;exitDy=0;entryX=0.294;entryY=1;entryDx=0;entryDy=0;entryPerimeter=0;labelBackgroundColor=none;fontColor=default;" parent="1" source="A18H2YYV-nFkvodKzMuA-39" target="A18H2YYV-nFkvodKzMuA-48" edge="1">
          <mxGeometry relative="1" as="geometry" />
        </mxCell>
        <mxCell id="A18H2YYV-nFkvodKzMuA-58" style="edgeStyle=orthogonalEdgeStyle;rounded=1;orthogonalLoop=1;jettySize=auto;html=1;exitX=0.25;exitY=0;exitDx=0;exitDy=0;entryX=0.5;entryY=1;entryDx=0;entryDy=0;labelBackgroundColor=none;fontColor=default;" parent="1" source="A18H2YYV-nFkvodKzMuA-39" target="A18H2YYV-nFkvodKzMuA-55" edge="1">
          <mxGeometry relative="1" as="geometry">
            <Array as="points">
              <mxPoint x="595" y="-90" />
              <mxPoint x="270" y="-90" />
            </Array>
          </mxGeometry>
        </mxCell>
        <mxCell id="A18H2YYV-nFkvodKzMuA-60" style="edgeStyle=orthogonalEdgeStyle;rounded=1;orthogonalLoop=1;jettySize=auto;html=1;exitX=0.75;exitY=0;exitDx=0;exitDy=0;labelBackgroundColor=none;fontColor=default;" parent="1" source="A18H2YYV-nFkvodKzMuA-39" target="A18H2YYV-nFkvodKzMuA-50" edge="1">
          <mxGeometry relative="1" as="geometry">
            <mxPoint x="640" y="-210" as="targetPoint" />
            <Array as="points">
              <mxPoint x="675" y="-136" />
              <mxPoint x="635" y="-136" />
            </Array>
          </mxGeometry>
        </mxCell>
        <mxCell id="caW7DvYXRnzaEFbuXi8Y-18" style="edgeStyle=orthogonalEdgeStyle;rounded=0;orthogonalLoop=1;jettySize=auto;html=1;exitX=0.5;exitY=0;exitDx=0;exitDy=0;" parent="1" source="A18H2YYV-nFkvodKzMuA-39" target="A18H2YYV-nFkvodKzMuA-53" edge="1">
          <mxGeometry relative="1" as="geometry">
            <Array as="points">
              <mxPoint x="640" y="-120" />
              <mxPoint x="435" y="-120" />
            </Array>
          </mxGeometry>
        </mxCell>
        <mxCell id="A18H2YYV-nFkvodKzMuA-39" value="&lt;font style=&quot;font-size: 21px;&quot;&gt;SUITE&lt;/font&gt;" style="rounded=1;whiteSpace=wrap;html=1;labelBackgroundColor=none;fillColor=#60a917;strokeColor=#2D7600;fontColor=#ffffff;" parent="1" vertex="1">
          <mxGeometry x="550" y="-60.00000000000004" width="180" height="60" as="geometry" />
        </mxCell>
        <mxCell id="A18H2YYV-nFkvodKzMuA-48" value="&lt;span style=&quot;font-size: 18px;&quot;&gt;LOCATION&lt;/span&gt;" style="ellipse;whiteSpace=wrap;html=1;labelBackgroundColor=none;rounded=1;fillColor=#dae8fc;gradientColor=#7ea6e0;strokeColor=#6c8ebf;" parent="1" vertex="1">
          <mxGeometry x="670" y="-220" width="170" height="60" as="geometry" />
        </mxCell>
        <mxCell id="A18H2YYV-nFkvodKzMuA-50" value="&lt;font style=&quot;font-size: 18px;&quot;&gt;CODE&lt;/font&gt;" style="ellipse;whiteSpace=wrap;html=1;rotation=-5;labelBackgroundColor=none;rounded=1;fillColor=#dae8fc;gradientColor=#7ea6e0;strokeColor=#6c8ebf;" parent="1" vertex="1">
          <mxGeometry x="550" y="-280" width="170" height="60" as="geometry" />
        </mxCell>
        <mxCell id="A18H2YYV-nFkvodKzMuA-53" value="&lt;font style=&quot;font-size: 18px;&quot;&gt;&lt;u&gt;ID&lt;/u&gt;&lt;/font&gt;" style="ellipse;whiteSpace=wrap;html=1;rotation=-10;labelBackgroundColor=none;rounded=1;fillColor=#dae8fc;gradientColor=#7ea6e0;strokeColor=#6c8ebf;" parent="1" vertex="1">
          <mxGeometry x="350" y="-300" width="170" height="60" as="geometry" />
        </mxCell>
        <mxCell id="A18H2YYV-nFkvodKzMuA-55" value="&lt;font style=&quot;font-size: 18px;&quot;&gt;NUM_ROOM&lt;/font&gt;" style="ellipse;whiteSpace=wrap;html=1;rotation=-30;labelBackgroundColor=none;rounded=1;fillColor=#dae8fc;gradientColor=#7ea6e0;strokeColor=#6c8ebf;" parent="1" vertex="1">
          <mxGeometry x="170" y="-235" width="170" height="60" as="geometry" />
        </mxCell>
        <mxCell id="A18H2YYV-nFkvodKzMuA-65" value="&lt;font style=&quot;font-size: 18px;&quot;&gt;MANGE&lt;/font&gt;" style="rhombus;whiteSpace=wrap;html=1;rotation=0;labelBackgroundColor=none;rounded=1;fillColor=#e51400;fontColor=#ffffff;strokeColor=#B20000;" parent="1" vertex="1">
          <mxGeometry x="660" y="87.99000000000001" width="121.56" height="112.29" as="geometry" />
        </mxCell>
        <mxCell id="A18H2YYV-nFkvodKzMuA-69" value="" style="endArrow=none;html=1;rounded=1;labelBackgroundColor=none;fontColor=default;exitX=1;exitY=0.25;exitDx=0;exitDy=0;" parent="1" source="Vbx-cMh8HeWqr-4w0K0C-271" edge="1">
          <mxGeometry width="50" height="50" relative="1" as="geometry">
            <mxPoint x="720" y="330" as="sourcePoint" />
            <mxPoint x="720" y="200" as="targetPoint" />
          </mxGeometry>
        </mxCell>
        <mxCell id="A18H2YYV-nFkvodKzMuA-72" value="&lt;font style=&quot;font-size: 19px;&quot;&gt;RESERVE&lt;/font&gt;" style="rhombus;whiteSpace=wrap;html=1;rotation=0;labelBackgroundColor=none;rounded=1;fillColor=#e51400;fontColor=#ffffff;strokeColor=#B20000;" parent="1" vertex="1">
          <mxGeometry x="1169.22" y="48.860000000000014" width="121.56" height="112.29" as="geometry" />
        </mxCell>
        <mxCell id="A18H2YYV-nFkvodKzMuA-86" style="edgeStyle=orthogonalEdgeStyle;rounded=1;orthogonalLoop=1;jettySize=auto;html=1;exitX=0.75;exitY=0;exitDx=0;exitDy=0;labelBackgroundColor=none;fontColor=default;entryX=0.285;entryY=0.968;entryDx=0;entryDy=0;entryPerimeter=0;" parent="1" source="A18H2YYV-nFkvodKzMuA-73" target="A18H2YYV-nFkvodKzMuA-80" edge="1">
          <mxGeometry relative="1" as="geometry">
            <mxPoint x="1360" y="-430" as="targetPoint" />
            <Array as="points">
              <mxPoint x="1300" y="-340" />
              <mxPoint x="1300" y="-368" />
              <mxPoint x="1480" y="-368" />
            </Array>
          </mxGeometry>
        </mxCell>
        <mxCell id="A18H2YYV-nFkvodKzMuA-90" style="edgeStyle=orthogonalEdgeStyle;rounded=1;orthogonalLoop=1;jettySize=auto;html=1;exitX=0.5;exitY=0;exitDx=0;exitDy=0;labelBackgroundColor=none;fontColor=default;entryX=0.531;entryY=1;entryDx=0;entryDy=0;entryPerimeter=0;" parent="1" source="A18H2YYV-nFkvodKzMuA-73" target="A18H2YYV-nFkvodKzMuA-81" edge="1">
          <mxGeometry relative="1" as="geometry">
            <mxPoint x="1230.333333333334" y="-470" as="targetPoint" />
            <Array as="points">
              <mxPoint x="1270" y="-340" />
              <mxPoint x="1270" y="-400" />
              <mxPoint x="1318" y="-400" />
            </Array>
          </mxGeometry>
        </mxCell>
        <mxCell id="A18H2YYV-nFkvodKzMuA-95" style="edgeStyle=orthogonalEdgeStyle;rounded=1;orthogonalLoop=1;jettySize=auto;html=1;exitX=0;exitY=0.25;exitDx=0;exitDy=0;labelBackgroundColor=none;fontColor=default;entryX=1;entryY=1;entryDx=0;entryDy=0;" parent="1" source="A18H2YYV-nFkvodKzMuA-73" target="A18H2YYV-nFkvodKzMuA-91" edge="1">
          <mxGeometry relative="1" as="geometry">
            <mxPoint x="950" y="-370" as="targetPoint" />
            <Array as="points">
              <mxPoint x="1170" y="-325" />
              <mxPoint x="1170" y="-370" />
              <mxPoint x="967" y="-370" />
            </Array>
          </mxGeometry>
        </mxCell>
        <mxCell id="caW7DvYXRnzaEFbuXi8Y-17" style="edgeStyle=orthogonalEdgeStyle;rounded=0;orthogonalLoop=1;jettySize=auto;html=1;exitX=0.25;exitY=0;exitDx=0;exitDy=0;" parent="1" source="A18H2YYV-nFkvodKzMuA-73" edge="1">
          <mxGeometry relative="1" as="geometry">
            <mxPoint x="1120" y="-470" as="targetPoint" />
          </mxGeometry>
        </mxCell>
        <mxCell id="A18H2YYV-nFkvodKzMuA-73" value="&lt;font style=&quot;font-size: 21px;&quot;&gt;ROOM&lt;/font&gt;" style="rounded=1;whiteSpace=wrap;html=1;labelBackgroundColor=none;fillColor=#60a917;fontColor=#ffffff;strokeColor=#2D7600;" parent="1" vertex="1">
          <mxGeometry x="1140" y="-340.00000000000006" width="180" height="60" as="geometry" />
        </mxCell>
        <mxCell id="A18H2YYV-nFkvodKzMuA-78" value="" style="endArrow=none;html=1;rounded=1;labelBackgroundColor=none;fontColor=default;" parent="1" edge="1">
          <mxGeometry width="50" height="50" relative="1" as="geometry">
            <mxPoint x="1230" y="50" as="sourcePoint" />
            <mxPoint x="1230" y="-280" as="targetPoint" />
          </mxGeometry>
        </mxCell>
        <mxCell id="A18H2YYV-nFkvodKzMuA-79" value="" style="endArrow=none;html=1;rounded=1;exitX=0.5;exitY=0;exitDx=0;exitDy=0;entryX=0.5;entryY=1;entryDx=0;entryDy=0;labelBackgroundColor=none;fontColor=default;" parent="1" source="Vbx-cMh8HeWqr-4w0K0C-1" target="A18H2YYV-nFkvodKzMuA-72" edge="1">
          <mxGeometry width="50" height="50" relative="1" as="geometry">
            <mxPoint x="1190" y="210" as="sourcePoint" />
            <mxPoint x="1240" y="160" as="targetPoint" />
          </mxGeometry>
        </mxCell>
        <mxCell id="A18H2YYV-nFkvodKzMuA-80" value="&lt;span style=&quot;font-size: 18px;&quot;&gt;PRICE&lt;/span&gt;" style="ellipse;whiteSpace=wrap;html=1;rotation=25;labelBackgroundColor=none;rounded=1;fillColor=#dae8fc;gradientColor=#7ea6e0;strokeColor=#6c8ebf;" parent="1" vertex="1">
          <mxGeometry x="1440" y="-490" width="170" height="60" as="geometry" />
        </mxCell>
        <mxCell id="A18H2YYV-nFkvodKzMuA-81" value="&lt;span style=&quot;font-size: 18px;&quot;&gt;CONTENT&lt;/span&gt;" style="ellipse;whiteSpace=wrap;html=1;labelBackgroundColor=none;rounded=1;fillColor=#dae8fc;gradientColor=#7ea6e0;strokeColor=#6c8ebf;" parent="1" vertex="1">
          <mxGeometry x="1227.34" y="-540" width="170" height="60" as="geometry" />
        </mxCell>
        <mxCell id="A18H2YYV-nFkvodKzMuA-82" value="&lt;span style=&quot;font-size: 18px;&quot;&gt;&lt;u&gt;ID&lt;/u&gt;&lt;/span&gt;" style="ellipse;whiteSpace=wrap;html=1;rotation=-5;labelBackgroundColor=none;rounded=1;fillColor=#dae8fc;gradientColor=#7ea6e0;strokeColor=#6c8ebf;" parent="1" vertex="1">
          <mxGeometry x="1030" y="-540" width="170" height="60" as="geometry" />
        </mxCell>
        <mxCell id="A18H2YYV-nFkvodKzMuA-91" value="&lt;span style=&quot;font-size: 18px;&quot;&gt;AVALIBILTY&lt;/span&gt;" style="ellipse;whiteSpace=wrap;html=1;rotation=-30;labelBackgroundColor=none;rounded=1;fillColor=#dae8fc;gradientColor=#7ea6e0;strokeColor=#6c8ebf;" parent="1" vertex="1">
          <mxGeometry x="820" y="-480" width="170" height="60" as="geometry" />
        </mxCell>
        <mxCell id="A18H2YYV-nFkvodKzMuA-106" value="&lt;font style=&quot;font-size: 18px;&quot;&gt;SUPERVISE&lt;/font&gt;" style="rhombus;whiteSpace=wrap;html=1;rotation=-30;labelBackgroundColor=none;rounded=1;fillColor=#e51400;fontColor=#ffffff;strokeColor=#B20000;" parent="1" vertex="1">
          <mxGeometry x="938.44" y="75.00000000000003" width="121.56" height="112.29" as="geometry" />
        </mxCell>
        <mxCell id="A18H2YYV-nFkvodKzMuA-107" value="" style="endArrow=none;html=1;rounded=1;shape=link;exitX=1;exitY=0;exitDx=0;exitDy=0;width=8.947368421052634;labelBackgroundColor=none;fontColor=default;entryX=0.5;entryY=1;entryDx=0;entryDy=0;" parent="1" target="A18H2YYV-nFkvodKzMuA-106" edge="1">
          <mxGeometry width="50" height="50" relative="1" as="geometry">
            <mxPoint x="720" y="380.23" as="sourcePoint" />
            <mxPoint x="1026" y="174" as="targetPoint" />
          </mxGeometry>
        </mxCell>
        <mxCell id="A18H2YYV-nFkvodKzMuA-109" value="" style="endArrow=none;html=1;rounded=1;labelBackgroundColor=none;fontColor=default;entryX=0.5;entryY=0;entryDx=0;entryDy=0;" parent="1" target="A18H2YYV-nFkvodKzMuA-106" edge="1">
          <mxGeometry width="50" height="50" relative="1" as="geometry">
            <mxPoint x="720" y="340" as="sourcePoint" />
            <mxPoint x="980" y="118" as="targetPoint" />
          </mxGeometry>
        </mxCell>
        <mxCell id="A18H2YYV-nFkvodKzMuA-110" value="&lt;font style=&quot;font-size: 43px;&quot;&gt;ERD FOR MANGMENT HOTEL&lt;/font&gt;" style="rounded=0;whiteSpace=wrap;html=1;labelBackgroundColor=none;fillColor=#cce5ff;strokeColor=#36393d;" parent="1" vertex="1">
          <mxGeometry x="890" y="880" width="710" height="60" as="geometry" />
        </mxCell>
        <mxCell id="A18H2YYV-nFkvodKzMuA-114" value="" style="endArrow=none;html=1;rounded=0;shape=link;strokeWidth=4;labelBackgroundColor=none;fontColor=default;" parent="1" edge="1">
          <mxGeometry width="50" height="50" relative="1" as="geometry">
            <mxPoint x="2800" y="-650" as="sourcePoint" />
            <mxPoint x="-240" y="-650" as="targetPoint" />
          </mxGeometry>
        </mxCell>
        <mxCell id="A18H2YYV-nFkvodKzMuA-115" value="" style="endArrow=none;html=1;rounded=0;shape=link;strokeWidth=4;labelBackgroundColor=none;fontColor=default;" parent="1" edge="1">
          <mxGeometry width="50" height="50" relative="1" as="geometry">
            <mxPoint x="2800" y="960" as="sourcePoint" />
            <mxPoint x="-240" y="960" as="targetPoint" />
          </mxGeometry>
        </mxCell>
        <mxCell id="A18H2YYV-nFkvodKzMuA-116" value="" style="endArrow=none;html=1;rounded=0;shape=link;strokeWidth=4;labelBackgroundColor=none;fontColor=default;" parent="1" edge="1">
          <mxGeometry width="50" height="50" relative="1" as="geometry">
            <mxPoint x="-230" y="950" as="sourcePoint" />
            <mxPoint x="-230" y="-640" as="targetPoint" />
          </mxGeometry>
        </mxCell>
        <mxCell id="A18H2YYV-nFkvodKzMuA-117" value="" style="endArrow=none;html=1;rounded=0;shape=link;strokeWidth=4;labelBackgroundColor=none;fontColor=default;" parent="1" edge="1">
          <mxGeometry width="50" height="50" relative="1" as="geometry">
            <mxPoint x="2790" y="950" as="sourcePoint" />
            <mxPoint x="2790" y="-640" as="targetPoint" />
          </mxGeometry>
        </mxCell>
        <mxCell id="A18H2YYV-nFkvodKzMuA-120" value="&lt;font style=&quot;font-size: 32px;&quot;&gt;M&lt;/font&gt;" style="text;html=1;strokeColor=none;fillColor=none;align=center;verticalAlign=middle;whiteSpace=wrap;rounded=0;strokeWidth=4;labelBackgroundColor=none;" parent="1" vertex="1">
          <mxGeometry x="1060" y="-300" width="60" height="30" as="geometry" />
        </mxCell>
        <mxCell id="A18H2YYV-nFkvodKzMuA-121" value="&lt;font style=&quot;font-size: 32px;&quot;&gt;1&lt;/font&gt;" style="text;html=1;strokeColor=none;fillColor=none;align=center;verticalAlign=middle;whiteSpace=wrap;rounded=0;strokeWidth=4;labelBackgroundColor=none;" parent="1" vertex="1">
          <mxGeometry x="650" y="663.0699999999999" width="60" height="30" as="geometry" />
        </mxCell>
        <mxCell id="A18H2YYV-nFkvodKzMuA-122" value="&lt;font style=&quot;font-size: 32px;&quot;&gt;M&lt;/font&gt;" style="text;html=1;strokeColor=none;fillColor=none;align=center;verticalAlign=middle;whiteSpace=wrap;rounded=0;strokeWidth=4;labelBackgroundColor=none;" parent="1" vertex="1">
          <mxGeometry x="1222.34" y="-265" width="60" height="30" as="geometry" />
        </mxCell>
        <mxCell id="A18H2YYV-nFkvodKzMuA-123" value="&lt;font style=&quot;font-size: 32px;&quot;&gt;M&lt;/font&gt;" style="text;html=1;strokeColor=none;fillColor=none;align=center;verticalAlign=middle;whiteSpace=wrap;rounded=0;strokeWidth=4;labelBackgroundColor=none;" parent="1" vertex="1">
          <mxGeometry x="1360" y="341.15" width="60" height="30" as="geometry" />
        </mxCell>
        <mxCell id="A18H2YYV-nFkvodKzMuA-124" value="&lt;font style=&quot;font-size: 32px;&quot;&gt;M&lt;/font&gt;" style="text;html=1;strokeColor=none;fillColor=none;align=center;verticalAlign=middle;whiteSpace=wrap;rounded=0;strokeWidth=4;labelBackgroundColor=none;" parent="1" vertex="1">
          <mxGeometry x="1670" y="695" width="60" height="30" as="geometry" />
        </mxCell>
        <mxCell id="A18H2YYV-nFkvodKzMuA-125" value="&lt;font style=&quot;font-size: 32px;&quot;&gt;M&lt;/font&gt;" style="text;html=1;strokeColor=none;fillColor=none;align=center;verticalAlign=middle;whiteSpace=wrap;rounded=0;strokeWidth=4;labelBackgroundColor=none;" parent="1" vertex="1">
          <mxGeometry x="725" y="695" width="60" height="30" as="geometry" />
        </mxCell>
        <mxCell id="A18H2YYV-nFkvodKzMuA-126" value="&lt;font style=&quot;font-size: 32px;&quot;&gt;M&lt;/font&gt;" style="text;html=1;strokeColor=none;fillColor=none;align=center;verticalAlign=middle;whiteSpace=wrap;rounded=0;strokeWidth=4;labelBackgroundColor=none;" parent="1" vertex="1">
          <mxGeometry x="1102.34" y="430" width="60" height="30" as="geometry" />
        </mxCell>
        <mxCell id="A18H2YYV-nFkvodKzMuA-127" value="&lt;font style=&quot;font-size: 32px;&quot;&gt;1&lt;br&gt;&lt;/font&gt;" style="text;html=1;strokeColor=none;fillColor=none;align=center;verticalAlign=middle;whiteSpace=wrap;rounded=0;strokeWidth=4;labelBackgroundColor=none;" parent="1" vertex="1">
          <mxGeometry x="710" y="-110.00000000000011" width="60" height="30" as="geometry" />
        </mxCell>
        <mxCell id="A18H2YYV-nFkvodKzMuA-128" value="&lt;font style=&quot;font-size: 32px;&quot;&gt;1&lt;br&gt;&lt;/font&gt;" style="text;html=1;strokeColor=none;fillColor=none;align=center;verticalAlign=middle;whiteSpace=wrap;rounded=0;strokeWidth=4;labelBackgroundColor=none;" parent="1" vertex="1">
          <mxGeometry x="650" y="18.860000000000014" width="60" height="30" as="geometry" />
        </mxCell>
        <mxCell id="A18H2YYV-nFkvodKzMuA-129" value="&lt;font style=&quot;font-size: 32px;&quot;&gt;1&lt;br&gt;&lt;/font&gt;" style="text;html=1;strokeColor=none;fillColor=none;align=center;verticalAlign=middle;whiteSpace=wrap;rounded=0;strokeWidth=4;labelBackgroundColor=none;" parent="1" vertex="1">
          <mxGeometry x="660" y="286.73" width="60" height="30" as="geometry" />
        </mxCell>
        <mxCell id="A18H2YYV-nFkvodKzMuA-130" value="&lt;font style=&quot;font-size: 32px;&quot;&gt;M&lt;br&gt;&lt;/font&gt;" style="text;html=1;strokeColor=none;fillColor=none;align=center;verticalAlign=middle;whiteSpace=wrap;rounded=0;strokeWidth=4;labelBackgroundColor=none;" parent="1" vertex="1">
          <mxGeometry x="660" y="411.15" width="60" height="30" as="geometry" />
        </mxCell>
        <mxCell id="A18H2YYV-nFkvodKzMuA-131" value="&lt;font style=&quot;font-size: 32px;&quot;&gt;M&lt;br&gt;&lt;/font&gt;" style="text;html=1;strokeColor=none;fillColor=none;align=center;verticalAlign=middle;whiteSpace=wrap;rounded=0;strokeWidth=4;labelBackgroundColor=none;" parent="1" vertex="1">
          <mxGeometry x="1222.3400000000001" y="316.72999999999996" width="60" height="30" as="geometry" />
        </mxCell>
        <mxCell id="A18H2YYV-nFkvodKzMuA-132" value="&lt;font style=&quot;font-size: 32px;&quot;&gt;1&lt;br&gt;&lt;/font&gt;" style="text;html=1;strokeColor=none;fillColor=none;align=center;verticalAlign=middle;whiteSpace=wrap;rounded=0;strokeWidth=4;labelBackgroundColor=none;" parent="1" vertex="1">
          <mxGeometry x="1282.3400000000001" y="316.73" width="60" height="30" as="geometry" />
        </mxCell>
        <mxCell id="A18H2YYV-nFkvodKzMuA-134" value="&lt;font style=&quot;font-size: 32px;&quot;&gt;1&lt;br&gt;&lt;/font&gt;" style="text;html=1;strokeColor=none;fillColor=none;align=center;verticalAlign=middle;whiteSpace=wrap;rounded=0;strokeWidth=4;labelBackgroundColor=none;" parent="1" vertex="1">
          <mxGeometry x="1693.71" y="341.15" width="60" height="30" as="geometry" />
        </mxCell>
        <mxCell id="A18H2YYV-nFkvodKzMuA-135" value="&lt;font style=&quot;font-size: 32px;&quot;&gt;M&lt;br&gt;&lt;/font&gt;" style="text;html=1;strokeColor=none;fillColor=none;align=center;verticalAlign=middle;whiteSpace=wrap;rounded=0;strokeWidth=4;labelBackgroundColor=none;" parent="1" vertex="1">
          <mxGeometry x="1290.7800000000002" y="426.15000000000003" width="60" height="30" as="geometry" />
        </mxCell>
        <mxCell id="A18H2YYV-nFkvodKzMuA-143" value="&lt;font style=&quot;font-size: 32px;&quot;&gt;M&lt;/font&gt;" style="text;html=1;strokeColor=none;fillColor=none;align=center;verticalAlign=middle;whiteSpace=wrap;rounded=0;strokeWidth=4;labelBackgroundColor=none;" parent="1" vertex="1">
          <mxGeometry x="725" y="396.15" width="60" height="30" as="geometry" />
        </mxCell>
        <mxCell id="A18H2YYV-nFkvodKzMuA-144" value="&lt;font style=&quot;font-size: 32px;&quot;&gt;M&lt;/font&gt;" style="text;html=1;strokeColor=none;fillColor=none;align=center;verticalAlign=middle;whiteSpace=wrap;rounded=0;strokeWidth=4;labelBackgroundColor=none;" parent="1" vertex="1">
          <mxGeometry x="740" y="306.72999999999996" width="60" height="30" as="geometry" />
        </mxCell>
        <mxCell id="A18H2YYV-nFkvodKzMuA-148" value="&lt;font style=&quot;font-size: 32px;&quot;&gt;1&lt;br&gt;&lt;/font&gt;" style="text;html=1;strokeColor=none;fillColor=none;align=center;verticalAlign=middle;whiteSpace=wrap;rounded=0;strokeWidth=4;labelBackgroundColor=none;" parent="1" vertex="1">
          <mxGeometry x="725" y="260.00000000000006" width="60" height="30" as="geometry" />
        </mxCell>
        <mxCell id="A18H2YYV-nFkvodKzMuA-158" value="&lt;font style=&quot;font-size: 32px;&quot;&gt;M&lt;br&gt;&lt;/font&gt;" style="text;html=1;strokeColor=none;fillColor=none;align=center;verticalAlign=middle;whiteSpace=wrap;rounded=0;strokeWidth=4;labelBackgroundColor=none;" parent="1" vertex="1">
          <mxGeometry x="1071.56" y="396.15" width="60" height="30" as="geometry" />
        </mxCell>
        <mxCell id="A18H2YYV-nFkvodKzMuA-159" value="&lt;span style=&quot;font-size: 18px;&quot;&gt;HAVE&lt;/span&gt;" style="rhombus;whiteSpace=wrap;html=1;rotation=-30;labelBackgroundColor=none;rounded=1;fillColor=#e51400;fontColor=#ffffff;strokeColor=#B20000;" parent="1" vertex="1">
          <mxGeometry x="900" y="-240" width="121.56" height="112.29" as="geometry" />
        </mxCell>
        <mxCell id="A18H2YYV-nFkvodKzMuA-160" value="" style="endArrow=none;html=1;rounded=1;shape=link;width=8.947368421052634;entryX=0;entryY=1;entryDx=0;entryDy=0;exitX=1;exitY=0.5;exitDx=0;exitDy=0;labelBackgroundColor=none;fontColor=default;" parent="1" source="A18H2YYV-nFkvodKzMuA-159" target="A18H2YYV-nFkvodKzMuA-73" edge="1">
          <mxGeometry width="50" height="50" relative="1" as="geometry">
            <mxPoint x="1004" y="27" as="sourcePoint" />
            <mxPoint x="1240" y="-270" as="targetPoint" />
          </mxGeometry>
        </mxCell>
        <mxCell id="A18H2YYV-nFkvodKzMuA-161" value="" style="endArrow=none;html=1;rounded=1;shape=link;width=8.947368421052634;entryX=1;entryY=0;entryDx=0;entryDy=0;labelBackgroundColor=none;fontColor=default;exitX=0;exitY=0.5;exitDx=0;exitDy=0;" parent="1" source="A18H2YYV-nFkvodKzMuA-159" target="A18H2YYV-nFkvodKzMuA-39" edge="1">
          <mxGeometry width="50" height="50" relative="1" as="geometry">
            <mxPoint x="870" y="-100" as="sourcePoint" />
            <mxPoint x="1150" y="-270" as="targetPoint" />
          </mxGeometry>
        </mxCell>
        <mxCell id="A18H2YYV-nFkvodKzMuA-164" value="&lt;span style=&quot;font-size: 18px;&quot;&gt;&lt;u&gt;ID&lt;/u&gt;&lt;/span&gt;" style="ellipse;whiteSpace=wrap;html=1;rotation=0;labelBackgroundColor=none;rounded=1;fillColor=#dae8fc;gradientColor=#7ea6e0;strokeColor=#6c8ebf;" parent="1" vertex="1">
          <mxGeometry x="1430" y="760.0000000000001" width="170" height="60" as="geometry" />
        </mxCell>
        <mxCell id="A18H2YYV-nFkvodKzMuA-165" value="&lt;span style=&quot;font-size: 18px;&quot;&gt;CHECKOUT&lt;/span&gt;" style="ellipse;whiteSpace=wrap;html=1;rotation=0;labelBackgroundColor=none;rounded=1;fillColor=#dae8fc;gradientColor=#7ea6e0;strokeColor=#6c8ebf;" parent="1" vertex="1">
          <mxGeometry x="1071.56" y="760.0000000000001" width="170" height="60" as="geometry" />
        </mxCell>
        <mxCell id="A18H2YYV-nFkvodKzMuA-166" value="&lt;span style=&quot;font-size: 18px;&quot;&gt;CHECKIN&lt;/span&gt;" style="ellipse;whiteSpace=wrap;html=1;rotation=0;labelBackgroundColor=none;rounded=1;fillColor=#dae8fc;strokeColor=#6c8ebf;gradientColor=#7ea6e0;" parent="1" vertex="1">
          <mxGeometry x="889.9999999999999" y="758.0700000000002" width="170" height="60" as="geometry" />
        </mxCell>
        <mxCell id="A18H2YYV-nFkvodKzMuA-178" value="&lt;span style=&quot;font-size: 18px;&quot;&gt;type&lt;/span&gt;" style="ellipse;whiteSpace=wrap;html=1;rotation=0;labelBackgroundColor=none;rounded=1;fillColor=#dae8fc;gradientColor=#7ea6e0;strokeColor=#6c8ebf;" parent="1" vertex="1">
          <mxGeometry x="1250" y="760.0000000000001" width="170" height="60" as="geometry" />
        </mxCell>
        <mxCell id="caW7DvYXRnzaEFbuXi8Y-1" value="&lt;font style=&quot;font-size: 32px;&quot;&gt;M&lt;/font&gt;" style="text;html=1;strokeColor=none;fillColor=none;align=center;verticalAlign=middle;whiteSpace=wrap;rounded=0;strokeWidth=4;labelBackgroundColor=none;" parent="1" vertex="1">
          <mxGeometry x="1670" y="-18.850000000000023" width="60" height="30" as="geometry" />
        </mxCell>
        <mxCell id="caW7DvYXRnzaEFbuXi8Y-3" value="" style="endArrow=none;html=1;rounded=1;shape=link;exitX=1;exitY=0.5;exitDx=0;exitDy=0;width=8.947368421052634;labelBackgroundColor=none;fontColor=default;" parent="1" edge="1">
          <mxGeometry width="50" height="50" relative="1" as="geometry">
            <mxPoint x="1620" y="383.87" as="sourcePoint" />
            <mxPoint x="1760" y="383.58" as="targetPoint" />
          </mxGeometry>
        </mxCell>
        <mxCell id="caW7DvYXRnzaEFbuXi8Y-10" value="&lt;span style=&quot;font-size: 18px;&quot;&gt;DISCOUNT&lt;/span&gt;" style="ellipse;whiteSpace=wrap;html=1;rotation=0;labelBackgroundColor=none;rounded=1;fillColor=#dae8fc;gradientColor=#7ea6e0;strokeColor=#6c8ebf;" parent="1" vertex="1">
          <mxGeometry x="520" y="560.0000000000001" width="170" height="60" as="geometry" />
        </mxCell>
        <mxCell id="caW7DvYXRnzaEFbuXi8Y-11" value="&lt;span style=&quot;font-size: 18px;&quot;&gt;NAEM&lt;/span&gt;" style="ellipse;whiteSpace=wrap;html=1;rotation=0;labelBackgroundColor=none;rounded=1;fillColor=#dae8fc;gradientColor=#7ea6e0;strokeColor=#6c8ebf;" parent="1" vertex="1">
          <mxGeometry x="400" y="510.0000000000001" width="170" height="60" as="geometry" />
        </mxCell>
        <mxCell id="caW7DvYXRnzaEFbuXi8Y-12" value="&lt;span style=&quot;font-size: 18px;&quot;&gt;OFFERS&lt;/span&gt;" style="ellipse;whiteSpace=wrap;html=1;rotation=-10;labelBackgroundColor=none;rounded=1;fillColor=#dae8fc;gradientColor=#7ea6e0;strokeColor=#6c8ebf;" parent="1" vertex="1">
          <mxGeometry x="220" y="500" width="170" height="60" as="geometry" />
        </mxCell>
        <mxCell id="caW7DvYXRnzaEFbuXi8Y-14" value="&lt;font style=&quot;font-size: 18px;&quot;&gt;BD&lt;/font&gt;" style="ellipse;whiteSpace=wrap;html=1;rotation=-43;labelBackgroundColor=none;rounded=1;fillColor=#dae8fc;gradientColor=#7ea6e0;strokeColor=#6c8ebf;" parent="1" vertex="1">
          <mxGeometry y="450" width="170" height="60" as="geometry" />
        </mxCell>
        <mxCell id="tOMmB3rbX-ufLfJB-HBI-5" value="" style="endArrow=none;html=1;rounded=1;shape=link;width=8.947368421052634;labelBackgroundColor=none;fontColor=default;exitX=0.5;exitY=0;exitDx=0;exitDy=0;" parent="1" source="A18H2YYV-nFkvodKzMuA-65" edge="1">
          <mxGeometry width="50" height="50" relative="1" as="geometry">
            <mxPoint x="918" y="-143" as="sourcePoint" />
            <mxPoint x="721" as="targetPoint" />
          </mxGeometry>
        </mxCell>
      </root>
    </mxGraphModel>
  </diagram>
</mxfile>
